<svg xmlns="http://www.w3.org/2000/svg" viewBox="0 0 64 64">
  <rect width="64" height="64" rx="18" fill="#050607" />
  <path d="M46.4 7.8 49.8 15l7.8 1.1-5.6 5.5 1.3 7.7-6.9-3.7-6.9 3.7 1.3-7.7-5.6-5.5L43 15l3.4-7.2Z" fill="#FF7A59" />
  <path d="M24.9 39.4c4.7-7.8 10.8-13.6 18.2-17.2" fill="none" stroke="#FF7A59" stroke-linecap="round" stroke-width="3.6" />
  <path d="M32.8 31.8c2.8-1.6 5.7-3.1 8.8-4.5" fill="none" stroke="#FFB29F" stroke-linecap="round" stroke-width="2.2" opacity=".95" />
  <circle cx="24.4" cy="31" r="5.4" fill="#4ECDC4" />
  <path d="M18.4 55.5 24 38.2c.4-1.2 2-1.6 3-.8l7.2 5.5c.4.3.7.7.9 1.2l3.2 11.4H18.4Z" fill="#4ECDC4" />
  <path d="M28.9 39.5c4.4-2.5 8-5.8 10.7-10" fill="none" stroke="#4ECDC4" stroke-linecap="round" stroke-width="4.4" />
  <path d="M22.3 39.8c-3.6 2.6-6.3 6.1-8.2 10.7" fill="none" stroke="#4ECDC4" stroke-linecap="round" stroke-width="4.2" />
  <path d="M24.2 55.5v-6.2M32.3 55.5l-1.6-6" fill="none" stroke="#B6FFF8" stroke-linecap="round" stroke-width="2.6" opacity=".9" />
  <circle cx="17" cy="15.5" r="1.3" fill="#FFFFFF" opacity=".85" />
  <circle cx="22.8" cy="11.7" r=".85" fill="#FFFFFF" opacity=".6" />
  <circle cx="53" cy="36.8" r=".95" fill="#FFFFFF" opacity=".55" />
</svg>
